<?xml version="1.0" encoding="UTF-8" standalone="no"?>
<svg viewBox="0 0 400 117" version="1.1" xmlns="http://www.w3.org/2000/svg" xmlns:xlink="http://www.w3.org/1999/xlink">
    <!-- Generator: Sketch 3.6.1 (26313) - http://www.bohemiancoding.com/sketch -->
    <title>earlybird-price</title>
    <desc>Created with Sketch.</desc>
    <defs></defs>
    <g id="Page-1" stroke="none" stroke-width="1" fill="none" fill-rule="evenodd">
        <g id="earlybird-price" fill="#000000">
            <g id="Group">
                <path d="M24.3702016,12.5798422 C22.6787029,11.6778265 20.0851884,11.001227 17.8296231,11.001227 C12.3039439,11.001227 8.80841367,14.2716915 8.80841367,18.1055215 C8.80841367,30.0588957 31.4748466,26.6758983 31.4748466,43.252936 C31.4748466,52.8382121 25.1596845,56.7849255 17.491674,57.6872918 L17.491674,65.8064855 C17.1533742,65.9190184 15.8001753,65.9190184 15.1235758,65.9190184 C14.4469763,65.9190184 12.980894,65.8064855 12.6425942,65.8064855 L12.6425942,57.7998247 C8.1318142,57.6872918 3.62138475,56.6720421 0.23803681,55.2063103 C0.23803681,51.4850131 0.576336547,46.8613497 1.02751972,43.5912358 C2.38071867,43.5912358 4.97423313,43.8166521 6.32743208,44.1549518 L6.32743208,51.1463628 C8.69553024,52.6124452 12.0785276,53.2890447 14.8978089,53.2890447 C21.4383874,53.2890447 24.7085013,49.7931639 24.7085013,44.3803681 C24.7085013,32.2015776 1.81665206,36.4865907 1.81665206,19.1204207 C1.81665206,12.1290096 6.55284838,7.50534619 14.7849255,6.71586328 L14.7849255,0.401051709 C16.0255916,0.175284838 18.3933392,0.062751972 19.8594216,0.062751972 L19.8594216,6.60333041 C23.2424189,6.94163015 27.1894829,7.73111306 30.347064,8.7456617 C30.347064,12.1286591 30.0087642,15.8503067 29.4450482,19.345837 C27.866433,19.345837 25.7237511,18.8946538 24.483085,18.3309378 L24.483085,12.5798422 L24.3702016,12.5798422 L24.3702016,12.5798422 Z" id="Shape"></path>
                <path d="M57.6368098,23.5183173 L39.8194566,25.773532 C39.9323401,23.2925504 40.721823,20.0224365 41.849255,17.8797546 C47.0366345,16.3011394 58.4262927,13.8201578 69.1390009,12.9177914 L69.1390009,88.9234005 C73.4243646,89.1491674 78.8371604,89.7128834 82.4459246,90.2765995 C82.8971078,91.516915 83.235057,93.8850131 83.235057,95.3510955 C83.235057,96.2531113 83.235057,96.9300613 83.1221735,97.7191937 L43.8790535,97.7191937 C43.9915863,95.6893953 45.0064855,92.0809816 45.9088519,90.27695 C48.5023663,89.713234 54.3663453,88.8108677 57.7493427,88.5854514 L57.7493427,23.5183173 L57.6368098,23.5183173 L57.6368098,23.5183173 Z" id="Shape"></path>
                <path d="M93.7223488,94.3368975 C94.5114812,91.743383 96.2033304,87.9088519 97.7819457,85.9919369 C99.4734443,85.6536372 101.164943,85.5407537 102.856442,85.5407537 C106.239439,85.5407537 109.39702,86.2177038 111.990535,87.0068361 C110.299036,96.1412796 104.435057,110.237336 100.71376,116.326731 C98.3456617,115.763015 95.4134969,114.071166 94.1731814,113.056266 C95.977213,107.98177 98.1198948,100.313409 98.9093777,95.5775635 L93.7223488,94.3368975 L93.7223488,94.3368975 Z" id="Shape"></path>
                <path d="M123.60596,88.3600351 C134.769851,74.6022787 164.202279,52.3870289 164.202279,34.3442594 C164.202279,25.2101665 159.240666,20.4739702 149.429623,20.4739702 C144.242244,20.4739702 138.716564,21.9400526 134.656968,24.0823839 L134.656968,35.0208589 C132.627169,36.0361087 128.680456,36.7123576 126.199474,36.7123576 C124.958808,30.8483786 124.620859,23.1800175 124.620859,17.4292726 C130.597371,14.6099912 139.618931,12.1290096 149.542507,12.1290096 C164.653462,12.1290096 176.493953,17.9929886 176.493953,31.8632778 C176.493953,54.4168273 145.48291,76.5191937 135.897634,86.7814198 L135.897634,87.6834356 L168.600526,87.6834356 C168.713059,85.3149869 169.502542,80.1276074 170.179141,76.8574934 C172.321472,76.2937774 176.156004,75.7297108 178.411218,75.7297108 L178.411218,97.6066608 L123.60596,97.6066608 L123.60596,88.3600351 L123.60596,88.3600351 Z" id="Shape"></path>
                <path d="M235.020508,56.5595092 C232.539527,61.5211218 226.224365,65.6936021 217.315688,65.6936021 C200.400701,65.6936021 191.379492,54.8680105 191.379492,40.3211218 C191.379492,22.7291849 202.205083,12.2418931 218.218405,12.2418931 C237.952673,12.2418931 247.650833,25.3226994 247.650833,51.5978966 C247.650833,83.7367222 234.456792,100.200876 214.383874,100.200876 C207.054163,100.200876 199.611218,98.9605609 194.536722,96.8178791 C192.732691,93.9985977 191.717791,87.9092025 192.168624,84.9773883 C197.58142,87.6841367 206.60298,90.8417178 213.594741,90.8417178 C225.886415,90.8417178 234.682209,80.8052585 235.922524,56.4473269 L235.020508,56.4473269 L235.020508,56.5595092 L235.020508,56.5595092 Z M218.105521,19.5716039 C208.294829,19.5716039 202.881683,27.5779141 202.881683,39.5316389 C202.881683,50.6955302 208.746012,57.7998247 220.13532,57.7998247 C226.788782,57.7998247 231.750394,54.3039439 235.697458,49.4548642 C235.584575,29.4951797 230.622612,19.5716039 218.105521,19.5716039 L218.105521,19.5716039 Z" id="Shape"></path>
                <path d="M273.361613,49.0040316 C277.42156,48.1020158 280.804207,47.763716 284.751271,47.763716 C298.62156,47.763716 310.800701,55.7700263 310.800701,73.3619632 C310.800701,91.743383 295.915513,100.313409 280.691674,100.313409 C273.24908,100.313409 266.708151,99.0730938 261.972305,97.7198948 C260.619106,95.4646801 259.71674,91.5179667 259.71674,88.6986854 C259.71674,88.1349693 259.71674,87.1200701 259.829623,86.4431201 C265.467835,89.1498685 272.685013,91.8559159 280.579141,91.8559159 C290.27695,91.8559159 298.847327,85.6539877 298.847327,74.4897458 C298.847327,59.9428571 290.164067,55.6574934 279.112708,55.6574934 C274.489395,55.6574934 268.7383,56.3340929 263.88922,57.1235758 L267.046801,14.8357581 L311.251884,14.8357581 C311.251884,18.3316389 310.913585,22.052936 310.236635,25.4359334 L275.504294,25.4359334 L273.361613,49.0040316 L273.361613,49.0040316 Z" id="Shape"></path>
                <path d="M356.471516,31.4124452 C356.471516,49.0040316 350.043821,57.8001753 338.879579,57.8001753 C327.039089,57.8001753 321.17511,49.4552147 321.17511,31.4124452 C321.17511,15.512007 328.166521,6.49079755 338.879579,6.49079755 C349.931288,6.60333041 356.471516,14.7225241 356.471516,31.4124452 L356.471516,31.4124452 Z M338.879579,53.1765118 C346.209641,53.1765118 349.479755,45.2827344 349.479755,31.2995618 C349.479755,19.2333041 345.645574,11.001227 338.879579,11.001227 C331.662752,11.001227 328.166521,18.5567046 328.166521,31.2995618 C328.166871,45.169851 331.888168,53.1765118 338.879579,53.1765118 L338.879579,53.1765118 Z" id="Shape"></path>
                <path d="M400,31.4124452 C400,49.0040316 393.572305,57.8001753 382.408063,57.8001753 C370.567572,57.8001753 364.703593,49.4552147 364.703593,31.4124452 C364.703593,15.512007 371.695004,6.49079755 382.408063,6.49079755 C393.346538,6.60333041 400,14.7225241 400,31.4124452 L400,31.4124452 Z M382.29553,53.1765118 C389.625241,53.1765118 392.895355,45.2827344 392.895355,31.2995618 C392.895355,19.2333041 389.061174,11.001227 382.29553,11.001227 C375.078352,11.001227 371.582472,18.5567046 371.582472,31.2995618 C371.582472,45.169851 375.416652,53.1765118 382.29553,53.1765118 L382.29553,53.1765118 Z" id="Shape"></path>
            </g>
        </g>
    </g>
</svg>
