<?xml version="1.0" encoding="UTF-8" standalone="no"?>
<svg width="15px" height="14px" viewBox="0 0 15 14" version="1.1" xmlns="http://www.w3.org/2000/svg" xmlns:xlink="http://www.w3.org/1999/xlink">
    <!-- Generator: Sketch 3.6.1 (26313) - http://www.bohemiancoding.com/sketch -->
    <title>max-sign-in</title>
    <desc>Created with Sketch.</desc>
    <defs></defs>
    <g id="Page-1" stroke="none" stroke-width="1" fill="none" fill-rule="evenodd">
        <g id="max-sign-in" fill="#333333">
            <path d="M14.2590838,10.6769576 C14.1341259,10.4131576 13.9952838,10.246547 13.6759469,10.1215892 C12.5929785,9.69117864 11.4822417,9.3579576 10.4270418,8.88589445 C9.95497863,8.6776313 9.58010496,8.34441026 9.26076813,7.95565238 C9.19134708,7.87234712 9.2191155,7.88623133 9.0802734,7.83069449 C8.9553155,7.66408397 8.9553155,7.71962081 8.9553155,7.66408397 C8.85812603,7.06706293 9.16357866,7.01152609 9.23299971,6.45615769 C9.24688392,6.38673664 9.24688392,6.31731559 9.34407339,6.28954717 C9.60787338,6.24789454 9.71894706,6.03963139 9.76059969,5.81748403 C9.84390495,5.48426298 9.88555758,5.15104194 9.92721021,4.80393669 C9.94109442,4.70674722 9.94109442,4.58178933 9.89944179,4.51236828 C9.73283127,4.24856829 9.89944179,3.9986525 9.913326,3.73485251 C9.95497863,3.15171569 10.1354734,2.55469466 9.80225232,1.99932625 C9.71894706,1.86048415 9.87167337,1.74941047 9.78836811,1.61056837 C9.66341022,1.38842101 9.53845233,1.26346312 9.26076813,1.26346312 C9.02473655,1.24957891 8.94143129,1.06908418 8.98308392,0.833052605 C8.89977866,0.763631555 8.8164734,0.805284185 8.77482077,0.819168395 C8.55267341,0.916357866 8.5387892,0.777515765 8.5387892,0.610905244 C8.5387892,0.583136824 8.55267341,0.499831563 8.5387892,0.527599983 C8.45548394,0.666442084 8.38606289,0.402642092 8.31664184,0.527599983 C8.21945237,0.708094714 8.13614711,0.763631555 8.05284185,0.513715773 C8.02507343,0.430410513 7.90011554,0.499831563 7.83069449,0.485947353 C7.62243134,0.444294723 7.46970503,0.374873672 7.53912608,0.111073681 L7.48358924,0.111073681 C7.27532608,0.416526303 7.06706293,0.513715773 6.7477261,0.374873672 C6.56723137,0.291568412 6.4700419,0.416526303 6.3311998,0.485947353 C6.23401033,0.541484193 6.17847349,0.721978924 6.0535156,0.666442084 C5.95632613,0.624789454 6.0535156,0.472063143 5.98409455,0.347105252 C5.76194719,0.527599983 5.78971561,0.833052605 5.63698929,1.04131576 C5.53979982,1.01354734 5.55368403,0.916357866 5.49814719,0.874705235 C5.48426298,0.888589445 5.47037877,0.902473655 5.47037877,0.902473655 C5.5120314,1.15238944 5.31765246,1.2356947 5.15104194,1.30511575 C4.87335774,1.41618943 4.66509459,1.63833679 4.44294723,1.81883152 C4.29022092,1.94378941 4.30410513,2.15205256 4.31798934,2.31866308 C4.33187355,2.76295781 4.49848407,3.19336832 4.41517881,3.65154725 C4.4012946,3.69319988 4.42906302,3.74873672 4.45683144,3.77650514 C4.70674722,4.09584197 4.60955775,4.47071565 4.63732617,4.83170511 C4.6789788,5.28988404 4.62344196,5.74806298 4.98443142,6.12293665 C5.03996826,6.17847349 5.03996826,6.27566296 5.05385247,6.35896822 C5.12327352,6.73384189 5.19269457,7.09483135 5.40095772,7.4280524 C5.48426298,7.5668945 5.55368403,7.74738923 5.48426298,7.87234712 C5.40095772,7.99730501 5.40095772,7.99730501 5.35930509,8.1222629 C5.2343472,8.28887342 5.0955051,8.44159973 4.97054721,8.60821025 C4.80393669,8.83035761 4.59567354,8.99696813 4.34575776,9.10804182 C3.22113674,9.60787338 2.12428414,10.1354734 0.985778916,10.5797681 C0.569252613,10.7463786 0.402642092,10.9824102 0.347105252,11.3711681 C0.249915782,11.9820733 0.124957891,12.5513259 0,13.1205785 L14.869989,13.1205785 C14.7866837,12.6762838 14.6617258,12.2597575 14.536768,11.829347 C14.4395785,11.4405891 14.4395785,11.037947 14.2590838,10.6769576 L14.2590838,10.6769576 Z" id="Shape"></path>
        </g>
    </g>
</svg>