<?xml version="1.0" encoding="UTF-8" standalone="no"?>
<svg width="326px" height="98px" viewBox="0 0 326 98" version="1.1" xmlns="http://www.w3.org/2000/svg" xmlns:xlink="http://www.w3.org/1999/xlink" xmlns:sketch="http://www.bohemiancoding.com/sketch/ns">
    <!-- Generator: Sketch 3.3.2 (12043) - http://www.bohemiancoding.com/sketch -->
    <title>Imported Layers</title>
    <desc>Created with Sketch.</desc>
    <defs></defs>
    <g id="Home-Page-(Desktop-+-Mobile)" stroke="none" stroke-width="1" fill="none" fill-rule="evenodd" sketch:type="MSPage">
        <g id="-Homepage-Desktop" sketch:type="MSArtboardGroup" transform="translate(-456.000000, -2803.000000)" fill="#D8D8D8">
            <g id="Question-2-Image/Header-2" sketch:type="MSLayerGroup" transform="translate(159.000000, 2629.000000)">
                <g id="Imported-Layers" transform="translate(460.087390, 208.084743) rotate(-17.000000) translate(-460.087390, -208.084743) translate(298.087390, 159.584743)" sketch:type="MSShapeGroup">
                    <path d="M20.1662178,55.1412667 L6.92287129,0.866533333 L22.9743366,0.866533333 L57.8886139,42.2790667 C57.8886139,42.2790667 65.7158416,51.7236333 74.7437822,51.7236333 C83.7749505,51.7236333 278.016079,51.9241 278.016079,51.9241 C278.016079,51.9241 305.506594,52.1245667 311.32295,65.7918667 C311.32295,65.7918667 323.265525,68.4044 323.765822,75.8928 C323.778733,76.0932667 323.362356,87.7009333 284.432792,87.7009333 L149.988455,87.7009333 C149.988455,87.7009333 67.8396832,92.2696333 1.09683168,63.7807333 C0.861207921,63.6837333 1.09683168,57.3496333 1.09683168,57.3496333 L20.1662178,55.1412667" id="Fill-1"></path>
                    <path d="M219.345762,78.3986333 C220.756277,72.5398333 147.386911,66.3544667 147.386911,66.3544667 L128.927564,44.4195333 L124.663743,44.4195333 L134.747149,65.8274333 L166.246495,82.5825667 C166.246495,82.5825667 199.663109,84.3350333 204.77905,83.5752 C204.77905,83.5752 218.645347,81.3118667 219.345762,78.3986333" id="Fill-2"></path>
                    <path d="M198.556,94.5200333 C200.263465,96.7704333 215.824317,95.7648667 222.234574,96.1302333 C223.712871,96.2110667 223.080238,80.0153 222.234574,79.6467 C218.874515,78.1755333 199.056297,78.6896333 198.556,80.8527333 C198.042792,83.0675667 197.487624,93.1167667 198.556,94.5200333" id="Fill-3"></path>
                </g>
            </g>
        </g>
    </g>
</svg>
