<?xml version="1.0" encoding="UTF-8" standalone="no"?>
<svg width="143px" height="76px" viewBox="0 0 143 76" version="1.1" xmlns="http://www.w3.org/2000/svg" xmlns:xlink="http://www.w3.org/1999/xlink" xmlns:sketch="http://www.bohemiancoding.com/sketch/ns">
    <!-- Generator: Sketch 3.3.2 (12043) - http://www.bohemiancoding.com/sketch -->
    <title>Imported Layers</title>
    <desc>Created with Sketch.</desc>
    <defs></defs>
    <g id="Home-Page-(Desktop-+-Mobile)" stroke="none" stroke-width="1" fill="none" fill-rule="evenodd" sketch:type="MSPage">
        <g id="-Homepage-Desktop" sketch:type="MSArtboardGroup" transform="translate(-159.000000, -2812.000000)" fill="#D8D8D8">
            <g id="Question-2-Image/Header-2" sketch:type="MSLayerGroup" transform="translate(159.000000, 2629.000000)">
                <path d="M115.270712,203.397313 C111.152847,203.397313 107.193154,204.351372 103.708747,205.941469 C102.124715,200.693952 100.857799,195.605638 100.223954,191.789014 L100.223954,191.630588 C99.9072248,189.880896 99.5904957,188.450003 99.4323245,187.33674 L109.252086,187.33674 C110.360831,187.33674 111.152847,186.382681 111.152847,185.428622 C111.152847,184.315748 110.202273,183.520505 109.252086,183.520505 L94.9973439,183.520505 L95.314073,185.747031 C95.314073,186.064661 95.6308021,188.450003 96.2642603,191.789014 L54.6087787,191.789014 L52.5498463,187.495944 L62.0532656,187.495944 C63.161624,187.495944 63.9536401,186.541885 63.9536401,185.587827 C63.9536401,184.474563 63.0034528,183.679709 62.0532656,183.679709 L44.4722879,183.679709 C43.3635428,183.679709 42.5715267,184.633768 42.5715267,185.587827 C42.5715267,186.70109 43.5221007,187.495944 44.4722879,187.495944 L48.2734236,187.495944 L50.9662009,193.220297 L41.3046104,207.531957 C37.1863589,205.146615 32.5932071,203.715332 27.5251551,203.715332 C12.4783968,203.397313 0.124415765,215.641261 0.124415765,230.747776 C0.124415765,245.853901 12.3198389,258.257054 27.5251551,258.257054 C41.9380685,258.257054 53.8171493,246.967164 54.7673366,232.814708 L63.7954689,232.814708 C64.5870982,236.154498 67.5966046,238.53945 71.2395691,238.53945 C75.5159918,238.53945 79.0003984,235.041235 79.0003984,230.747776 C79.0003984,228.839658 78.3669402,227.090356 77.0996372,225.659073 L97.2148342,196.241677 C98.0068503,199.739893 98.9570375,203.715332 100.382512,207.849587 C92.9384115,212.779085 88.028144,221.206799 88.028144,230.747776 C88.028144,245.853901 100.223954,258.257054 115.42927,258.257054 C130.475642,258.257054 142.830009,245.853901 142.830009,230.747776 C142.671452,215.641261 130.31747,203.397313 115.270712,203.397313 L115.270712,203.397313 Z M27.5251551,254.281614 C14.5373292,254.281614 4.08410936,243.786968 4.08410936,230.747776 C4.08410936,217.708583 14.5373292,207.213548 27.5251551,207.213548 C31.8015778,207.213548 35.6027135,208.326811 39.0871201,210.234929 L23.8821906,232.655893 L50.807643,232.655893 C49.8574557,244.741027 39.7205783,254.281614 27.5251551,254.281614 L27.5251551,254.281614 Z M31.1677329,228.839658 L42.2547976,212.619881 C47.0065073,216.59532 50.3327427,222.320062 50.807643,228.839658 L31.1677329,228.839658 L31.1677329,228.839658 Z M63.7954689,228.839658 L54.7673366,228.839658 C54.2924363,220.888779 50.3327427,213.892348 44.4722879,209.28087 L52.8665754,196.877717 L66.1711304,224.864219 C65.0623852,225.977482 64.112198,227.24956 63.7954689,228.839658 L63.7954689,228.839658 Z M71.2395691,234.564011 C69.8140949,234.564011 68.7053497,233.768767 68.0718916,232.655893 C67.7551625,232.019854 67.5966046,231.383426 67.5966046,230.747776 C67.5966046,229.952532 67.7551625,229.316882 68.0718916,228.839658 C68.0718916,228.839658 68.0718916,228.839658 68.0718916,228.680454 C68.7053497,227.567191 69.9726528,226.931541 71.2395691,226.931541 L71.3977403,226.931541 L71.5562982,226.772336 L71.5562982,226.931541 C72.9817724,227.090356 74.0905175,227.885599 74.5658045,229.157678 C74.7239757,229.634513 74.8821469,230.111737 74.8821469,230.747776 C75.0407048,232.814708 73.2985015,234.564011 71.2395691,234.564011 L71.2395691,234.564011 Z M73.7737885,223.432936 C72.9817724,223.115306 72.0315852,222.956101 71.2395691,222.956101 C70.7642821,222.956101 70.2893819,222.956101 69.8140949,223.115306 L56.5095399,195.287619 L92.9384115,195.287619 L73.7737885,223.432936 L73.7737885,223.432936 Z M115.270712,254.281614 C102.283273,254.281614 91.8296664,243.786968 91.8296664,230.747776 C91.8296664,222.956101 95.6308021,215.959281 101.491257,211.665822 C104.342205,219.457886 108.301899,227.090356 113.845238,232.179058 C114.161967,232.496689 114.637254,232.655893 115.112541,232.655893 C115.587441,232.655893 116.220899,232.496689 116.538015,232.019854 C117.329645,231.225 117.171473,229.952532 116.379457,229.316882 C111.152847,224.54581 107.351325,217.072544 104.817492,209.5985 C107.98517,208.008791 111.469576,207.213548 115.112541,207.213548 C128.09998,207.213548 138.553587,217.708583 138.553587,230.747776 C138.711758,243.786968 128.258538,254.281614 115.270712,254.281614 L115.270712,254.281614 Z" id="Imported-Layers" sketch:type="MSShapeGroup"></path>
            </g>
        </g>
    </g>
</svg>