<?xml version="1.0" encoding="UTF-8" standalone="no"?>
<svg width="129px" height="90px" viewBox="0 0 129 90" version="1.1" xmlns="http://www.w3.org/2000/svg" xmlns:xlink="http://www.w3.org/1999/xlink" xmlns:sketch="http://www.bohemiancoding.com/sketch/ns">
    <!-- Generator: Sketch 3.3.2 (12043) - http://www.bohemiancoding.com/sketch -->
    <title>1434579057_bikecons_lowrider</title>
    <desc>Created with Sketch.</desc>
    <defs></defs>
    <g id="Home-Page-(Desktop-+-Mobile)" stroke="none" stroke-width="1" fill="none" fill-rule="evenodd" sketch:type="MSPage">
        <g id="-Homepage-Desktop" sketch:type="MSArtboardGroup" transform="translate(-947.000000, -2802.000000)" fill="#D8D8D8">
            <g id="1434579057_bikecons_lowrider" sketch:type="MSLayerGroup" transform="translate(947.000000, 2802.000000)">
                <path d="M109.55988,50.7507163 C106.830539,50.7507163 104.204192,51.3438395 101.835329,52.3495702 L92.4113772,34.4011461 L97.5868263,8.53581662 C97.6125749,8.38108883 97.6125749,8.252149 97.6125749,8.0974212 C97.6125749,2.65616046 92.8748503,0.541547278 90.3772455,0.180515759 C89.1670659,1.35669254e-13 88.0598802,0.851002865 87.8538922,2.06303725 C87.6736527,3.27507163 88.5233533,4.38395415 89.7335329,4.59025788 C89.888024,4.61604585 93.0293413,5.08022923 93.1323353,7.89111748 L87.8538922,34.2722063 C87.7508982,34.7621777 87.8281437,35.277937 88.0856287,35.7421203 L90.660479,40.6676218 C78.0952096,39.0429799 64.2167665,41.5959885 49.8233533,48.1461318 L48.8964072,43.8137536 L55.0245509,43.8137536 C56.2347305,43.8137536 57.2389222,42.8080229 57.2389222,41.5959885 C57.2389222,40.3839542 56.2347305,39.3782235 55.0245509,39.3782235 L20.0580838,39.3782235 C13.8526946,39.3782235 13.4149701,35.4584527 13.4149701,34.6848138 C13.4149701,33.4727794 12.4107784,32.4670487 11.2005988,32.4670487 L11.2005988,32.4670487 C9.99041916,32.4670487 8.98622754,33.4727794 8.98622754,34.6848138 C8.98622754,37.5730659 10.9173653,42.7048711 17.8437126,43.6332378 L17.8437126,50.4412607 C7.95628743,51.5501433 0.231736527,59.9570201 0.231736527,70.1432665 C0.231736527,81.1289398 9.08922156,90 20.0580838,90 C29.3532934,90 37.1293413,83.6045845 39.2664671,74.9398281 L53.0161677,76.7965616 C53.1191617,76.7965616 53.1964072,76.8223496 53.2994012,76.8223496 L53.2994012,76.8223496 C62.9293413,76.8223496 69.5467066,69.9111748 75.9065868,63.1805158 C81.9317365,56.8108883 87.6479042,50.8280802 95.7329341,50.234957 L97.9473054,54.4899713 C93.1580838,58.0487106 90.042515,63.747851 90.042515,70.1432665 C90.042515,80.8968481 98.745509,89.6389685 109.508383,89.6389685 C120.271257,89.6389685 128.974251,80.9226361 128.974251,70.1432665 C129,59.4670487 120.297006,50.7507163 109.55988,50.7507163 L109.55988,50.7507163 Z M45.7808383,50.1060172 C44.6479042,50.6991404 43.4892216,51.2922636 42.3562874,51.9111748 C39.5239521,53.4584527 36.8976048,55.0573066 34.4772455,56.6045845 C31.3359281,53.277937 27.0874251,51.008596 22.2982036,50.4928367 L22.2982036,43.8395415 L44.4161677,43.8395415 L45.7808383,50.1060172 L45.7808383,50.1060172 Z M33.4730539,62.6389685 C34.7347305,64.8309456 35.4299401,67.3323782 35.4556886,70.0401146 L25.3107784,68.6733524 C27.3449102,67.0487106 30.1,64.9340974 33.4730539,62.6389685 L33.4730539,62.6389685 Z M22.3239521,65.4240688 L22.3239521,55.0057307 C25.5682635,55.495702 28.5035928,56.965616 30.7437126,59.1575931 C27.1904192,61.530086 24.3580838,63.722063 22.3239521,65.4240688 L22.3239521,65.4240688 Z M20.1095808,85.6676218 C11.6125749,85.6676218 4.71197605,78.756447 4.71197605,70.2464183 C4.71197605,62.5100287 10.4281437,56.0888252 17.8952096,55.0057307 L17.8952096,70.2464183 C17.8952096,70.2464183 17.8952096,70.2464183 17.8952096,70.2722063 C17.8952096,70.504298 17.9209581,70.7106017 17.9982036,70.9426934 C17.9982036,70.9684814 18.0239521,71.0200573 18.0239521,71.0458453 C18.0497006,71.1232092 18.1011976,71.2005731 18.1269461,71.226361 C18.2041916,71.4068768 18.3071856,71.5616046 18.4616766,71.7163324 C18.4874251,71.7421203 18.5389222,71.8194842 18.6161677,71.8710602 C18.7964072,72.0515759 19.0281437,72.2063037 19.2341317,72.2836676 C19.2598802,72.2836676 19.3113772,72.2836676 19.3113772,72.3094556 C19.4658683,72.3868195 19.6461078,72.4126074 19.8005988,72.4641834 L34.9149701,74.4498567 C33.0353293,80.8968481 27.1131737,85.6676218 20.1095808,85.6676218 L20.1095808,85.6676218 Z M37.1550898,60.2148997 C40.0389222,58.3581662 43.257485,56.4756447 46.7077844,54.6704871 L50.4413174,72.0515759 L39.8329341,70.6332378 C39.8329341,70.47851 39.8586826,70.3753582 39.8586826,70.2206304 C39.8844311,66.5587393 38.905988,63.1289398 37.1550898,60.2148997 L37.1550898,60.2148997 Z M72.739521,60.1633238 C67.2035928,65.965616 61.9508982,71.4842407 55.1275449,72.3352436 L50.8790419,52.6332378 C63.2898204,46.8309456 78.3526946,42.6532951 93.3125749,45.5673352 L93.5700599,46.0830946 C84.8155689,47.4756447 78.6616766,53.9226361 72.739521,60.1633238 L72.739521,60.1633238 Z M109.55988,85.2808023 C101.294611,85.2808023 94.5227545,78.5243553 94.5227545,70.2206304 C94.5227545,65.5272206 96.7113772,61.2979943 100.11018,58.5386819 L106.753293,71.252149 C107.165269,72 107.937725,72.4383954 108.71018,72.4383954 C109.04491,72.4383954 109.405389,72.3610315 109.74012,72.1805158 C110.821557,71.6131805 111.259281,70.2464183 110.667066,69.1891117 L103.920958,56.269341 C105.646108,55.5730659 107.577246,55.1604585 109.55988,55.1604585 C117.82515,55.1604585 124.597006,61.9169054 124.597006,70.2206304 C124.597006,78.5243553 117.850898,85.2808023 109.55988,85.2808023 L109.55988,85.2808023 Z" id="Shape" sketch:type="MSShapeGroup"></path>
            </g>
        </g>
    </g>
</svg>