<?xml version="1.0" encoding="UTF-8" standalone="no"?>
<svg width="104px" height="102px" viewBox="0 0 104 102" version="1.1" xmlns="http://www.w3.org/2000/svg" xmlns:xlink="http://www.w3.org/1999/xlink" xmlns:sketch="http://www.bohemiancoding.com/sketch/ns">
    <!-- Generator: Sketch 3.3.2 (12043) - http://www.bohemiancoding.com/sketch -->
    <title>Imported Layers</title>
    <desc>Created with Sketch.</desc>
    <defs></defs>
    <g id="Home-Page-(Desktop-+-Mobile)" stroke="none" stroke-width="1" fill="none" fill-rule="evenodd" sketch:type="MSPage">
        <g id="-Homepage-Desktop" sketch:type="MSArtboardGroup" transform="translate(-965.000000, -14405.000000)" fill="#E6E6E6">
            <g id="Imported-Layers" sketch:type="MSLayerGroup" transform="translate(965.000000, 14405.000000)">
                <path d="M33.1536114,59.0526875 L38.5469689,59.0526875 L38.5469689,64.419375 L33.1536114,64.419375 L33.1536114,59.0526875 Z" id="Fill-1" sketch:type="MSShapeGroup"></path>
                <path d="M33.1536114,80.526875 L38.5469689,80.526875 L38.5469689,85.894625 L33.1536114,85.894625 L33.1536114,80.526875 Z" id="Fill-2" sketch:type="MSShapeGroup"></path>
                <path d="M33.1536114,37.5790312 L38.5469689,37.5790312 L38.5469689,42.9467812 L33.1536114,42.9467812 L33.1536114,37.5790312 Z" id="Fill-3" sketch:type="MSShapeGroup"></path>
                <path d="M49.3320829,80.526875 L54.7254404,80.526875 L54.7254404,85.894625 L49.3320829,85.894625 L49.3320829,80.526875 Z" id="Fill-4" sketch:type="MSShapeGroup"></path>
                <path d="M65.5116218,37.5790312 L70.9049793,37.5790312 L70.9049793,42.9467812 L65.5116218,42.9467812 L65.5116218,37.5790312 Z" id="Fill-5" sketch:type="MSShapeGroup"></path>
                <path d="M16.9740725,80.526875 L22.3674301,80.526875 L22.3674301,85.894625 L16.9740725,85.894625 L16.9740725,80.526875 Z" id="Fill-6" sketch:type="MSShapeGroup"></path>
                <path d="M16.9740725,59.0526875 L22.3674301,59.0526875 L22.3674301,64.419375 L16.9740725,64.419375 L16.9740725,59.0526875 Z" id="Fill-7" sketch:type="MSShapeGroup"></path>
                <path d="M49.3320829,59.0526875 L54.7254404,59.0526875 L54.7254404,64.419375 L49.3320829,64.419375 L49.3320829,59.0526875 Z" id="Fill-8" sketch:type="MSShapeGroup"></path>
                <path d="M49.3320829,37.5790312 L54.7254404,37.5790312 L54.7254404,42.9467812 L49.3320829,42.9467812 L49.3320829,37.5790312 Z" id="Fill-9" sketch:type="MSShapeGroup"></path>
                <path d="M97.8690984,0 L6.18895855,0 C3.2131658,0 0.796134715,2.40603125 0.796134715,5.36828125 L0.796134715,96.630125 C0.796134715,99.5960937 3.2131658,102 6.18895855,102 L97.8690984,102 C100.845425,102 103.262456,99.5960937 103.262456,96.6311875 L103.262456,5.36828125 C103.262456,2.40603125 100.845425,0 97.8690984,0 L97.8690984,0 Z M97.8701658,91.262375 L97.8690984,91.262375 C97.8690984,94.2272812 95.4520674,96.630125 92.4757409,96.630125 L11.5823161,96.630125 C8.60598964,96.630125 6.18895855,94.2272812 6.18895855,91.262375 L6.18895855,32.2102187 C6.18895855,29.2490312 8.60598964,26.843 11.5823161,26.843 L92.4768083,26.843 C95.4531347,26.843 97.8701658,29.2490312 97.8701658,32.2102187 L97.8701658,91.262375 L97.8701658,91.262375 Z" id="Fill-10" sketch:type="MSShapeGroup"></path>
                <path d="M81.6906269,59.0526875 L87.0839845,59.0526875 L87.0839845,64.419375 L81.6906269,64.419375 L81.6906269,59.0526875 Z" id="Fill-11" sketch:type="MSShapeGroup"></path>
                <path d="M81.6906269,37.5790312 L87.0839845,37.5790312 L87.0839845,42.9467812 L81.6906269,42.9467812 L81.6906269,37.5790312 Z" id="Fill-12" sketch:type="MSShapeGroup"></path>
                <path d="M65.5116218,80.526875 L70.9049793,80.526875 L70.9049793,85.894625 L65.5116218,85.894625 L65.5116218,80.526875 Z" id="Fill-13" sketch:type="MSShapeGroup"></path>
                <path d="M68.2072332,53.683875 C63.7387409,53.683875 60.1182642,57.2910625 60.1182642,61.7365625 C60.1182642,66.1847188 63.7387409,69.7881875 68.2072332,69.7881875 C72.6735907,69.7881875 76.2967358,66.1836563 76.2967358,61.7365625 C76.2978031,57.2910625 72.6735907,53.683875 68.2072332,53.683875" id="Fill-14" sketch:type="MSShapeGroup"></path>
            </g>
        </g>
    </g>
</svg>