<?xml version="1.0" encoding="UTF-8" standalone="no"?>
<svg width="283px" height="90px" viewBox="0 0 283 90" version="1.1" xmlns="http://www.w3.org/2000/svg" xmlns:xlink="http://www.w3.org/1999/xlink" xmlns:sketch="http://www.bohemiancoding.com/sketch/ns">
    <!-- Generator: Sketch 3.3.2 (12043) - http://www.bohemiancoding.com/sketch -->
    <title>Artboard 1</title>
    <desc>Created with Sketch.</desc>
    <defs></defs>
    <g id="Page-1" stroke="none" stroke-width="1" fill="none" fill-rule="evenodd" sketch:type="MSPage">
        <g id="Artboard-1" sketch:type="MSArtboardGroup" fill="#D8D8D8">
            <path d="M214.195674,48.1785441 C222.68389,48.1785441 229.52162,55.0540997 229.52162,63.589272 C229.757403,71.176092 223.627025,78.5258238 214.903025,78.5258238 C206.650593,78.5258238 199.812863,71.8873563 199.812863,63.1150958 C199.57708,54.3428352 206.650593,48.1785441 214.195674,48.1785441 L214.195674,48.1785441 L214.195674,48.1785441 Z" id="Shape" sketch:type="MSShapeGroup"></path>
            <path d="M77.4410806,48.1785441 C85.6935129,48.1785441 92.2954588,54.5799233 92.2954588,63.3521839 C92.2954588,71.8873563 85.6935129,78.5258238 77.4410806,78.5258238 C69.1886483,78.5258238 62.8224862,72.1244444 62.5867024,63.3521839 C62.8224862,54.8170115 69.1886483,48.1785441 77.4410806,48.1785441 L77.4410806,48.1785441 L77.4410806,48.1785441 Z" id="Shape" sketch:type="MSShapeGroup"></path>
            <path d="M35.7073513,55.5282759 C35.2357838,56.2395403 35.2357838,56.9508046 35.7073513,57.662069 C36.4147027,59.0845977 36.8862702,60.2700383 37.3578378,61.692567 C37.5936216,61.9296552 37.5936216,62.4038314 37.8294054,62.6409196 C38.5367567,63.1150958 38.7725405,64.0634483 39.0083243,64.7747126 C39.2441081,65.0118008 39.2441081,65.2488889 39.4798918,65.485977 C43.0166485,68.0939463 47.2607566,68.0939463 51.5048647,69.0422989 C53.6269187,69.5164751 55.5131889,69.5164751 57.635243,69.7535632 C58.1068106,69.7535632 58.3425943,67.1455938 58.1068106,65.9601532 C58.1068106,65.2488889 58.3425943,64.7747126 58.3425943,64.0634483 L58.3425943,63.589272 C58.5783781,52.6832184 66.8308104,44.148046 77.2052968,44.148046 C84.7503778,44.148046 91.1165399,48.4156322 94.1817291,54.8170115 C94.1817291,54.8170115 94.1817291,54.8170115 94.1817291,55.0540997 C94.4175128,55.2911878 94.4175128,55.765364 94.6532966,56.0024521 C96.7753506,61.2183908 96.5395668,66.4343295 96.0679993,66.9085057 C95.5964317,68.8052108 95.1248642,70.9390038 94.8890804,72.3615326 C94.6532966,73.309885 95.3606479,74.0211494 96.3037831,74.0211494 C98.8974047,73.7840613 104.084648,73.309885 109.507675,72.8357088 C138.50908,72.8357088 167.274701,72.5986207 196.51189,72.5986207 C196.983457,71.8873563 196.747674,72.1244444 197.219242,71.4131801 C196.276106,69.5164751 195.568755,65.7230651 195.568755,63.589272 C195.804539,52.6832184 204.056971,44.148046 214.431457,44.148046 C224.805944,44.148046 233.29416,52.4461303 233.29416,63.3521839 L233.29416,63.3521839 C233.29416,65.9601532 232.822592,68.0939463 232.351025,69.279387 C232.115241,69.9906514 232.586808,70.4648276 233.058376,70.4648276 C235.18043,70.4648276 237.538268,70.4648276 239.660322,69.7535632 C240.603457,69.5164751 241.546592,69.5164751 242.489727,69.279387 C243.668646,69.0422989 243.90443,68.5681226 243.90443,67.382682 L243.90443,66.9085057 C244.847565,64.7747126 245.083349,62.6409196 245.319133,60.5071264 C245.319133,60.0329502 245.319133,59.5587739 245.554917,59.0845977 C246.733835,58.3733333 246.733835,58.3733333 246.733835,57.1878927 C246.733835,56.0024521 246.969619,55.0540997 246.969619,53.868659 C246.969619,52.9203065 246.498051,52.2090421 245.7907,51.7348659 C244.847565,51.2606897 243.668646,50.7865134 242.725511,50.3123372 L242.725511,49.8381609 L242.725511,46.7560153 C242.961295,43.4367816 241.310808,41.5400767 238.717187,40.1175479 C237.302484,39.4062835 235.887782,38.9321073 234.473079,38.457931 C231.40789,37.7466667 221.033403,34.9016092 218.675565,34.427433 C214.903025,33.7161686 210.894701,33.2419923 206.886377,32.7678161 C202.642268,32.2936398 198.633944,32.0565517 194.389836,31.5823755 C192.73935,31.3452874 191.088863,31.3452874 189.202593,31.5823755 C188.023674,31.5823755 187.080539,31.3452874 186.137404,30.8711111 C178.120755,26.1293486 156.428648,16.1716475 154.070809,14.9862069 C150.062485,13.0895019 145.582593,12.3782375 141.338485,11.6669732 C138.50908,11.1927969 135.679674,11.1927969 132.850269,11.1927969 C123.183134,11.1927969 113.515999,11.1927969 103.848864,12.1411494 C99.8405398,12.6153257 95.8322155,13.0895019 91.8238913,14.0378544 C87.5797832,14.9862069 83.3356751,17.12 79.3273508,18.5425287 C73.9043239,20.6763219 68.7170807,23.2842912 63.2940537,25.6551724 C60.4646483,27.5518774 53.6269187,29.2114943 46.7891891,29.2114943 L41.3661621,29.2114943 C40.8945945,29.2114943 40.423027,29.2114943 39.9514594,29.4485824 C39.4798918,29.6856705 39.0083243,29.9227586 39.2441081,30.634023 C40.1872432,34.427433 39.7156756,38.2208429 39.0083243,42.0142529 C38.7725405,43.4367816 38.7725405,44.8593103 38.7725405,46.5189272 L38.7725405,47.2301915 C38.3009729,47.4672797 37.5936216,47.4672797 37.122054,47.7043678 C35.7073513,48.1785441 35,49.6010728 35.2357838,51.0236015 C35.4715676,52.2090421 35.7073513,53.3944827 35.9431351,54.5799233 C35.9431351,54.5799233 35.9431351,55.0540997 35.7073513,55.5282759 L35.7073513,55.5282759 L35.7073513,55.5282759 Z M119.410593,14.9862069 C123.890485,14.5120306 130.492431,14.5120306 135.443891,14.7491188 C140.159566,14.9862069 144.639458,15.6974713 149.11935,17.12 C153.127674,18.5425287 169.160971,27.0777011 169.160971,27.0777011 C169.632539,27.3147892 169.868322,27.5518774 170.339891,27.7889656 L170.339891,27.7889656 L169.632539,27.7889656 C169.396755,27.7889656 169.160971,28.0260537 168.689404,28.2631418 L168.689404,28.2631418 C168.217836,28.0260537 167.982053,28.0260537 167.510485,28.0260537 L167.510485,28.0260537 C167.274701,28.0260537 165.152647,27.0777011 164.681079,28.737318 C164.681079,28.9744062 164.209512,30.1598468 164.209512,30.8711111 C164.209512,32.530728 165.388431,33.4790804 165.388431,33.4790804 L165.388431,33.4790804 C165.152647,33.9532567 164.916863,34.427433 164.681079,34.9016092 C163.737945,34.9016092 139.216431,34.1903448 122.947351,33.9532567 L118.231675,17.3570881 C118.231675,16.1716475 118.703242,14.9862069 119.410593,14.9862069 L119.410593,14.9862069 L119.410593,14.9862069 Z M77.2052968,28.5002299 C77.2052968,27.0777011 79.091567,25.6551724 79.5631346,25.4180843 C80.7420535,24.4697318 86.4008643,21.8617625 93.9459453,18.7796168 C100.076324,16.1716475 108.328756,16.1716475 111.393945,15.6974713 C112.101296,15.6974713 112.572864,16.1716475 112.572864,16.6458238 L113.987567,33.2419923 C110.686593,33.2419923 81.4494049,32.530728 80.7420535,32.530728 C79.7989184,32.530728 77.4410806,31.3452874 77.2052968,28.5002299 L77.2052968,28.5002299 L77.2052968,28.5002299 Z" id="Shape" sketch:type="MSShapeGroup"></path>
        </g>
    </g>
</svg>