<?xml version="1.0" encoding="UTF-8" standalone="no"?>
<svg width="165px" height="85px" viewBox="0 0 165 85" version="1.1" xmlns="http://www.w3.org/2000/svg" xmlns:xlink="http://www.w3.org/1999/xlink" xmlns:sketch="http://www.bohemiancoding.com/sketch/ns">
    <!-- Generator: Sketch 3.3.2 (12043) - http://www.bohemiancoding.com/sketch -->
    <title>Imported Layers</title>
    <desc>Created with Sketch.</desc>
    <defs></defs>
    <g id="Home-Page-(Desktop-+-Mobile)" stroke="none" stroke-width="1" fill="none" fill-rule="evenodd" sketch:type="MSPage">
        <g id="-Homepage-Desktop" sketch:type="MSArtboardGroup" transform="translate(-937.000000, -2807.000000)" fill="#D8D8D8">
            <g id="Question-2-Image/Header-2" sketch:type="MSLayerGroup" transform="translate(159.000000, 2629.000000)">
                <path d="M806.992825,236.197422 C799.666499,236.197422 793.727664,242.078063 793.727664,249.35163 C793.727664,256.612623 799.664259,262.504042 806.992825,262.504042 C814.314671,262.504042 820.256195,256.612623 820.256195,249.35163 C820.253955,242.078063 814.316912,236.197422 806.992825,236.197422 L806.992825,236.197422 Z M806.992825,256.216569 C803.167706,256.216569 800.071949,253.14423 800.071949,249.35163 C800.071949,245.557682 803.167706,242.483996 806.992825,242.483996 C810.815705,242.483996 813.907429,245.557682 813.907429,249.35163 C813.907429,253.139291 810.813464,256.216569 806.992825,256.216569 L806.992825,256.216569 Z M879.697417,178.977918 L813.038288,178.977918 C813.038288,178.977918 804.427514,179.864774 804.427514,184.307586 L888.149595,184.307586 C888.149595,184.307586 886.236139,178.977918 879.697417,178.977918 L879.697417,178.977918 Z M914.179042,236.197422 C906.848684,236.197422 900.91164,242.078063 900.91164,249.35163 C900.91164,256.612623 906.848684,262.504042 914.179042,262.504042 C921.500888,262.504042 927.437931,256.612623 927.437931,249.35163 C927.437931,242.078063 921.500888,236.197422 914.179042,236.197422 L914.179042,236.197422 Z M914.179042,256.216569 C910.353923,256.216569 907.255926,253.14423 907.255926,249.35163 C907.255926,245.557682 910.353923,242.483996 914.179042,242.483996 C917.999681,242.483996 921.093646,245.557682 921.093646,249.35163 C921.093646,253.139291 917.999681,256.216569 914.179042,256.216569 L914.179042,256.216569 Z M937.90616,212.545083 L903.512345,205.797792 C898.198037,196.324373 888.413025,185.905274 888.413025,185.905274 L804.212468,185.905274 L789.54324,205.087858 C778.270832,219.532611 778.910143,233.503175 778.910143,233.503175 C780.083933,246.315663 789.290561,248.502044 792.574483,248.876993 C792.61794,240.996323 799.068853,234.620839 807.024186,234.620839 C815.006401,234.620839 821.47837,241.040329 821.47837,248.956025 L899.676921,248.956025 C899.676921,241.040329 906.150682,234.620839 914.132897,234.620839 C922.115111,234.620839 928.58708,241.040329 928.58708,248.956025 L933.918412,248.956025 C942.850858,247.888654 942.372383,226.21973 942.372383,226.21973 C943.009902,212.901621 937.90616,212.545083 937.90616,212.545083 L937.90616,212.545083 Z M843.410755,207.434996 C843.410755,207.434996 843.231102,209.820302 839.059671,209.820302 L802.455369,209.820302 C802.455369,209.820302 796.47442,209.138658 800.460375,202.323113 L805.171212,194.144279 C805.171212,194.144279 807.345858,190.73516 812.601925,190.395685 L837.793591,190.395685 C837.793591,190.395685 843.231102,190.225498 843.410755,197.213026 L843.410755,207.434996 L843.410755,207.434996 Z M855.750773,219.947075 L851.060993,219.947075 C850.603573,219.947075 850.233516,219.577964 850.233516,219.126677 C850.233516,218.674493 850.605366,218.306279 851.060993,218.306279 L855.750773,218.306279 C856.208193,218.306279 856.57825,218.672697 856.57825,219.126677 C856.57825,219.580209 856.208193,219.947075 855.750773,219.947075 L855.750773,219.947075 Z M846.674068,209.822547 L846.674068,194.655737 C846.674068,194.655737 846.674068,190.565422 852.291231,190.395685 L882.014082,190.395685 C882.014082,190.395685 884.005044,189.883778 886.906812,193.804804 L898.143827,209.822547 L846.674068,209.822547 L846.674068,209.822547 Z M936.416971,227.158674 C935.26155,227.158674 934.327895,224.980825 934.327895,222.295111 C934.327895,219.609397 935.26155,217.431547 936.416971,217.431547 C937.571943,217.431547 938.506046,219.609397 938.506046,222.295111 C938.506046,224.980825 937.571943,227.158674 936.416971,227.158674 L936.416971,227.158674 Z" id="Imported-Layers" sketch:type="MSShapeGroup"></path>
            </g>
        </g>
    </g>
</svg>