<?xml version="1.0" encoding="UTF-8" standalone="no"?>
<svg width="283px" height="90px" viewBox="0 0 283 90" version="1.1" xmlns="http://www.w3.org/2000/svg" xmlns:xlink="http://www.w3.org/1999/xlink" xmlns:sketch="http://www.bohemiancoding.com/sketch/ns">
    <!-- Generator: Sketch 3.3.2 (12043) - http://www.bohemiancoding.com/sketch -->
    <title>noun_34323</title>
    <desc>Created with Sketch.</desc>
    <defs></defs>
    <g id="Home-Page-(Desktop-+-Mobile)" stroke="none" stroke-width="1" fill="none" fill-rule="evenodd" sketch:type="MSPage">
        <g id="-Homepage-Desktop" sketch:type="MSArtboardGroup" transform="translate(-441.000000, -2775.000000)" fill="#D8D8D8">
            <g id="noun_34323" sketch:type="MSLayerGroup" transform="translate(441.000000, 2775.000000)">
                <path d="M239.209319,49.2068966 C250.540287,49.2068966 259.668011,58.3068966 259.668011,69.6034483 C259.98276,79.6448276 251.799283,89.3724138 240.153566,89.3724138 C229.137348,89.3724138 220.009624,80.5862069 220.009624,68.9758621 C219.694875,57.3655172 229.137348,49.2068966 239.209319,49.2068966 L239.209319,49.2068966 Z" id="Shape" sketch:type="MSShapeGroup"></path>
                <path d="M56.6548387,49.2068966 C67.6710573,49.2068966 76.4840323,57.6793103 76.4840323,69.2896552 C76.4840323,80.5862069 67.6710573,89.3724138 56.6548387,89.3724138 C45.6386201,89.3724138 37.1403943,80.9 36.8256452,69.2896552 C37.1403943,57.9931034 45.6386201,49.2068966 56.6548387,49.2068966 L56.6548387,49.2068966 Z" id="Shape" sketch:type="MSShapeGroup"></path>
                <path d="M0.944247312,58.9344828 C0.314749104,59.8758621 0.314749104,60.8172414 0.944247312,61.7586207 C1.88849462,63.6413793 2.51799283,65.2103448 3.14749104,67.0931034 C3.46224014,67.4068966 3.46224014,68.0344828 3.77698925,68.3482759 C4.72123656,68.9758621 5.03598566,70.2310345 5.35073477,71.1724138 C5.66548387,71.4862069 5.66548387,71.8 5.98023297,72.1137931 C10.7014695,75.5655172 16.3669534,75.5655172 22.0324373,76.8206897 C24.8651792,77.4482759 27.383172,77.4482759 30.215914,77.762069 C30.8454122,77.762069 31.1601613,74.3103448 30.8454122,72.7413793 C30.8454122,71.8 31.1601613,71.1724138 31.1601613,70.2310345 L31.1601613,69.6034483 C31.4749104,55.1689655 42.491129,43.8724138 56.3400896,43.8724138 C66.4120609,43.8724138 74.9102867,49.5206897 79.0020251,57.9931034 C79.0020251,57.9931034 79.0020251,57.9931034 79.0020251,58.3068966 C79.3167742,58.6206897 79.3167742,59.2482759 79.6315233,59.562069 C82.4642652,66.4655172 82.1495161,73.3689655 81.5200179,73.9965517 C80.8905197,76.5068966 80.2610215,79.3310345 79.9462724,81.2137931 C79.6315233,82.4689655 80.5757706,83.4103448 81.834767,83.4103448 C85.2970072,83.0965517 92.2214875,82.4689655 99.4607168,81.8413793 C138.174857,81.8413793 176.574247,81.5275862 215.603136,81.5275862 C216.232634,80.5862069 215.917885,80.9 216.547384,79.9586207 C215.288387,77.4482759 214.34414,72.4275862 214.34414,69.6034483 C214.658889,55.1689655 225.675108,43.8724138 239.524068,43.8724138 C253.373029,43.8724138 264.703996,54.8551724 264.703996,69.2896552 L264.703996,69.2896552 C264.703996,72.7413793 264.074498,75.5655172 263.445,77.1344828 C263.130251,78.0758621 263.759749,78.7034483 264.389247,78.7034483 C267.221989,78.7034483 270.36948,78.7034483 273.202222,77.762069 C274.461219,77.4482759 275.720215,77.4482759 276.979211,77.1344828 C278.552957,76.8206897 278.867706,76.1931034 278.867706,74.6241379 L278.867706,73.9965517 C280.126703,71.1724138 280.441452,68.3482759 280.756201,65.5241379 C280.756201,64.8965517 280.756201,64.2689655 281.07095,63.6413793 C282.644695,62.7 282.644695,62.7 282.644695,61.1310345 C282.644695,59.562069 282.959444,58.3068966 282.959444,56.737931 C282.959444,55.4827586 282.329946,54.5413793 281.385699,53.9137931 C280.126703,53.2862069 278.552957,52.6586207 277.293961,52.0310345 L277.293961,51.4034483 L277.293961,47.3241379 C277.60871,42.9310345 275.405466,40.4206897 271.943226,38.537931 C270.054731,37.5965517 268.166237,36.9689655 266.277742,36.3413793 C262.186004,35.4 248.337043,31.6344828 245.189552,31.0068966 C240.153566,30.0655172 234.802832,29.437931 229.452097,28.8103448 C223.786613,28.1827586 218.435878,27.8689655 212.770394,27.2413793 C210.567151,26.9275862 208.363907,26.9275862 205.845914,27.2413793 C204.272168,27.2413793 203.013172,26.9275862 201.754176,26.3 C191.052706,20.0241379 162.095789,6.84482759 158.948297,5.27586207 C153.597563,2.76551724 147.61733,1.82413793 141.951846,0.882758621 C138.174857,0.255172414 134.397867,0.255172414 130.620878,0.255172414 C117.716165,0.255172414 104.811452,0.255172414 91.9067384,1.51034483 C86.5560036,2.13793103 81.2052688,2.76551724 75.8545341,4.02068966 C70.1890502,5.27586207 64.5235663,8.1 59.1728315,9.98275862 C51.9336022,12.8068966 45.0091219,16.2586207 37.7698925,19.3965517 C33.9929032,21.9068966 24.8651792,24.1034483 15.7374552,24.1034483 L8.49822581,24.1034483 C7.8687276,24.1034483 7.23922939,24.1034483 6.60973118,24.4172414 C5.98023297,24.7310345 5.35073477,25.0448276 5.66548387,25.9862069 C6.92448029,31.0068966 6.29498208,36.0275862 5.35073477,41.0482759 C5.03598566,42.9310345 5.03598566,44.8137931 5.03598566,47.0103448 L5.03598566,47.9517241 C4.40648746,48.2655172 3.46224014,48.2655172 2.83274194,48.5793103 C0.944247312,49.2068966 -7.87925281e-13,51.0896552 0.314749104,52.9724138 C0.629498208,54.5413793 0.944247312,56.1103448 1.25899642,57.6793103 C1.25899642,57.6793103 1.25899642,58.3068966 0.944247312,58.9344828 L0.944247312,58.9344828 Z M112.680179,5.27586207 C118.660412,4.64827586 127.473387,4.64827586 134.083118,4.96206897 C140.3781,5.27586207 146.358333,6.21724138 152.338566,8.1 C157.689301,9.98275862 179.09224,21.2793103 179.09224,21.2793103 C179.721738,21.5931034 180.036487,21.9068966 180.665986,22.2206897 L180.665986,22.2206897 L179.721738,22.2206897 C179.406989,22.2206897 179.09224,22.5344828 178.462742,22.8482759 L178.462742,22.8482759 C177.833244,22.5344828 177.518495,22.5344828 176.888996,22.5344828 L176.888996,22.5344828 C176.574247,22.5344828 173.741505,21.2793103 173.112007,23.4758621 C173.112007,23.7896552 172.482509,25.3586207 172.482509,26.3 C172.482509,28.4965517 174.056254,29.7517241 174.056254,29.7517241 L174.056254,29.7517241 C173.741505,30.3793103 173.426756,31.0068966 173.112007,31.6344828 C171.853011,31.6344828 139.119104,30.6931034 117.401416,30.3793103 L111.106434,8.4137931 C111.106434,6.84482759 111.735932,5.27586207 112.680179,5.27586207 L112.680179,5.27586207 Z M56.3400896,23.162069 C56.3400896,21.2793103 58.8580824,19.3965517 59.4875806,19.0827586 C61.0613262,17.8275862 68.6153047,14.3758621 78.687276,10.2965517 C86.8707527,6.84482759 97.8869713,6.84482759 101.97871,6.21724138 C102.922957,6.21724138 103.552455,6.84482759 103.552455,7.47241379 L105.44095,29.437931 C101.034462,29.437931 62.0055735,28.4965517 61.0613262,28.4965517 C59.8023297,28.4965517 56.6548387,26.9275862 56.3400896,23.162069 L56.3400896,23.162069 Z" id="Shape" sketch:type="MSShapeGroup"></path>
            </g>
        </g>
    </g>
</svg>