<?xml version="1.0" encoding="UTF-8" standalone="no"?>
<svg width="143px" height="82px" viewBox="0 0 143 82" version="1.1" xmlns="http://www.w3.org/2000/svg" xmlns:xlink="http://www.w3.org/1999/xlink" xmlns:sketch="http://www.bohemiancoding.com/sketch/ns">
    <!-- Generator: Sketch 3.3.2 (12043) - http://www.bohemiancoding.com/sketch -->
    <title>Fill 214 + Fill 218 + noun_63045</title>
    <desc>Created with Sketch.</desc>
    <defs></defs>
    <g id="Home-Page-(Desktop-+-Mobile)" stroke="none" stroke-width="1" fill="none" fill-rule="evenodd" sketch:type="MSPage">
        <g id="-Homepage-Desktop" sketch:type="MSArtboardGroup" transform="translate(-191.000000, -2804.000000)" fill="#D8D8D8">
            <g id="Fill-214-+-Fill-218-+-noun_63045" sketch:type="MSLayerGroup" transform="translate(191.000000, 2804.000000)">
                <path d="M113,67.106383 L120.5,67.106383 L120.5,68.5957447 L113,68.5957447 L113,67.106383 Z M113,70.0851064 L120.5,70.0851064 L120.5,71.5744681 L113,71.5744681 L113,70.0851064 Z M113,73.0638298 L120.5,73.0638298 L120.5,74.5531915 L113,74.5531915 L113,73.0638298 Z M143,56.6808511 L143,54.4468085 L124.625,47 L107,54.4468085 L107,56.6808511 L123.5,56.6808511 L123.5,65.6170213 L122,65.6170213 L122,61.1489362 L111.5,61.1489362 L111.5,65.6170213 L110,65.6170213 L110,77.5319149 L112.5605,77.5319149 C112.109,78.0085106 111.8285,78.6489362 111.8285,79.3489362 C111.8285,80.8085106 113.024,82 114.5,82 C115.976,82 117.1715,80.8085106 117.1715,79.3489362 C117.1715,78.6489362 116.891,78.0085106 116.441,77.5319149 L126.0605,77.5319149 C125.609,78.0085106 125.3285,78.6489362 125.3285,79.3489362 C125.3285,80.8085106 126.524,82 128,82 C129.476,82 130.6715,80.8085106 130.6715,79.3489362 C130.6715,78.6489362 130.391,78.0085106 129.941,77.5319149 L132.5,77.5319149 L132.5,65.6170213 L126.5,65.6170213 L126.5,56.6808511 L143,56.6808511 L143,56.6808511 Z" id="Fill-214" sketch:type="MSShapeGroup"></path>
                <path d="M34.986453,57 L59.1067239,57 L59.1067239,45 L34.986453,45 L34.986453,57 Z M13.8812159,63 L25.9413514,63 L25.9413514,42 L13.8812159,42 L13.8812159,63 Z M71.1668594,66 L71.1668594,69 L1.82108046,69 L1.82108046,66 C1.82108046,64.35 3.1778457,63 4.83611432,63 L4.83611432,36 L68.1518255,36 L68.1518255,63 C69.8100942,63 71.1668594,64.35 71.1668594,66 L71.1668594,66 Z M6.34966132,33.03 C9.7566496,33.03 12.5123906,30.36 12.6691723,27 C12.6691723,27 12.8892698,26.01 13.8812159,26.01 C14.870147,26.01 15.1023046,27 15.1023046,27 C15.2621014,30.36 18.0148274,33.03 21.4248307,33.03 C24.8318189,33.03 27.5875599,30.36 27.7443416,27 C27.7443416,27 27.9644391,26.01 28.9563853,26.01 C29.9453164,26.01 30.177474,27 30.177474,27 C30.3372708,30.36 33.0899967,33.03 36.5,33.03 C39.9069883,33.03 42.6627292,30.36 42.819511,27 C42.819511,27 43.0396085,26.01 44.0315546,26.01 C45.0204857,26.01 45.2526433,27 45.2526433,27 C45.4124401,30.36 48.165166,33.03 51.5751693,33.03 C54.9821576,33.03 57.7378986,30.36 57.8946803,27 C57.8946803,27 58.1147778,26.01 59.1067239,26.01 C60.095655,26.01 60.3278127,27 60.3278127,27 C60.4876094,30.36 63.2403354,33.03 66.6503387,33.03 C70.1598381,33.03 73,30.21 73,26.7 C73,25.74 72.6743763,24 72.6743763,24 L65.1367917,12 L7.85114819,12 L0.313563522,24 C0.313563522,24 0,25.74 0,26.7 C0,30.21 2.8401619,33.03 6.34966132,33.03 L6.34966132,33.03 Z M68.1518255,9 L4.83611432,9 L4.83611432,3 C4.83611432,1.35 6.19287956,0 7.85114819,0 L65.1367917,0 C66.7950603,0 68.1518255,1.35 68.1518255,3 L68.1518255,9 L68.1518255,9 Z" id="Fill-218" sketch:type="MSShapeGroup"></path>
                <g id="noun_63045" transform="translate(76.000000, 44.000000)" sketch:type="MSShapeGroup">
                    <g id="Group">
                        <path d="M13.2521569,1.27509677 C12.8156863,0.634064516 11.9145098,0.232258065 11.1933333,0.113806452 C10.5070588,0.000774193548 9.78705882,0.491225806 9.47764706,0.678193548 C9.10078431,0.905806452 8.93960784,1.33548387 8.77137255,1.67806452 C8.60352941,2.02103226 8.55254902,2.40619355 8.51372549,2.72632258 C8.45803922,3.18154839 8.42352941,3.68516129 8.4854902,3.99174194 C8.48313725,3.99909677 8.47843137,4.00490323 8.4772549,4.01225806 C8.43333333,4.27896774 8.07960784,4.92503226 7.72705882,5.21767742 C7.64431373,5.28658065 7.63372549,5.40851613 7.70313725,5.49058065 C7.74196078,5.53625806 7.7972549,5.55948387 7.85333333,5.55948387 C7.89803922,5.55948387 7.94313725,5.5443871 7.97960784,5.51419355 C8.33490196,5.21922581 8.68352941,4.64670968 8.81529412,4.25574194 C8.8827451,4.23870968 8.95254902,4.21006452 9.01960784,4.16206452 C9.19921569,4.03316129 9.95058824,3.74245161 10.0168627,3.03290323 C10.0694118,2.472 10.6058824,2.37174194 10.7368627,2.50412903 C10.8678431,2.63651613 10.6878431,2.98490323 10.9,3.03329032 C11.1121569,3.08167742 11.1290196,3.03329032 11.2760784,2.74296774 C11.4231373,2.45264516 11.9623529,2.27535484 12.3054902,2.05625806 C12.5666667,1.88941935 12.8176471,1.97651613 12.9227451,2.0276129 C12.9207843,2.03883871 12.9160784,2.04929032 12.9164706,2.06090323 C12.9235294,2.34658065 12.7478431,2.86567742 12.5411765,3.04180645 C12.3588235,3.19741935 12.3329412,3.43470968 12.3239216,3.53845161 C12.3101961,3.57987097 12.3105882,3.59729032 12.3152941,3.81445161 C12.32,4.02658065 12.3341176,4.67148387 12.2956863,4.77677419 C12.2745098,4.80774194 12.1376471,4.79767742 12.0352941,4.75741935 C11.945098,4.72103226 11.8403922,4.75664516 11.7909804,4.84064516 L11.7047059,4.99432258 C11.534902,5.30051613 11.2152941,5.86916129 10.9823529,5.76851613 C10.9376471,5.74954839 10.8745098,5.71587097 10.8019608,5.67793548 C10.4352941,5.48593548 10.1623529,5.35741935 9.96392157,5.44141935 C9.88235294,5.47625806 9.82470588,5.54283871 9.80039216,5.62877419 C9.68039216,6.06077419 9.6945098,7.16051613 9.69529412,7.20735484 C9.69686275,7.31303226 9.78431373,7.39819355 9.89137255,7.39819355 L9.89411765,7.39819355 C10.0023529,7.39664516 10.0890196,7.30877419 10.087451,7.20193548 C10.0831373,6.92245161 10.0898039,6.17187097 10.1603922,5.81148387 C10.2839216,5.84516129 10.5109804,5.964 10.6176471,6.02012903 C10.7015686,6.06387097 10.774902,6.10219355 10.8266667,6.12425806 C11.3921569,6.36658065 11.7870588,5.652 12.0482353,5.18051613 L12.0564706,5.16541935 C12.225098,5.19909677 12.4733333,5.20374194 12.6184314,4.99625806 C12.7035294,4.87432258 12.7243137,4.5963871 12.7070588,3.80632258 C12.705098,3.72309677 12.7035294,3.65922581 12.7039216,3.62903226 C12.7070588,3.61316129 12.7090196,3.59690323 12.7109804,3.57793548 C12.7180392,3.51716129 12.7317647,3.39096774 12.7976471,3.33483871 C13.1243137,3.05612903 13.3137255,2.40658065 13.3082353,2.05858065 C13.5231373,2.03535484 13.6772549,1.89948387 13.2521569,1.27509677 L13.2521569,1.27509677 Z" id="Shape"></path>
                        <path d="M19.405098,32.2010323 C19.2623529,32.0713548 18.1098039,32.1379355 17.6639216,32.1774194 C17.3239216,32.2076129 16.8407843,32.3442581 16.5282353,32.1433548 C16.6517647,31.9672258 16.7,31.796129 16.6086275,31.6289032 C15.2623529,29.1611613 14.5588235,27.6901935 14.0047059,26.5923871 C13.3584314,25.311871 12.6117647,23.8943226 12.0756863,22.9192258 C11.747451,22.3227097 11.2611765,21.4165161 11.1098039,20.7100645 C10.934902,19.8917419 10.5070588,17.3063226 10.5070588,17.3063226 L10.7364706,15.3820645 C10.0819608,15.6309677 9.45372549,15.8500645 9.02078431,15.9356129 C7.79529412,16.1775484 7.6972549,15.3065806 7.6972549,15.3065806 C7.6972549,15.3065806 6.88862745,12.3452903 6.88862745,11.3388387 L9.2172549,11.0969032 C9.32470588,12.0170323 9.41333333,13.9517419 9.41333333,13.9517419 C9.76313725,13.8708387 10.3062745,13.7914839 10.8764706,13.7140645 C10.9278431,12.8821935 10.9866667,11.7793548 10.9866667,11.0969032 C10.9866667,8.77432258 10.0984314,6.90348387 10.0984314,6.90348387 L7.85333333,5.06477419 C7.85333333,5.06477419 6.56901961,5.83896774 5.8827451,7.35522581 C5.51411765,8.16967742 5.45803922,13.5325161 5.16392157,14.6938065 C5.16392157,14.6938065 4.45529412,17.2393548 4.67372549,19.0486452 C4.91882353,21.0809032 3.13803922,26.451871 3.13803922,26.451871 L0.915686275,32.000129 C0.915686275,32.000129 0.372941176,33.5756129 0.52,33.9143226 C0.522745098,33.9205161 0.53254902,33.924 0.536862745,33.9298065 C0.424313725,34.2089032 0.31372549,34.5390968 0.310980392,34.7744516 C0.305098039,35.2672258 1.44705882,35.7205161 1.87960784,35.7421935 C2.19686275,35.7580645 5.18745098,35.6771613 5.70313725,35.5970323 C5.82627451,35.5776774 5.99843137,35.5970323 5.9972549,35.2583226 C5.99568627,34.7980645 5.87490196,34.6656774 5.33529412,34.496129 C4.79568627,34.3265806 3.58509804,33.9917419 3.58509804,33.5574194 L3.58431373,33.5574194 C3.68666667,33.5276129 3.75921569,33.5020645 3.79137255,33.4842581 C3.79137255,33.4842581 4.77176471,31.4032258 5.16392157,30 C5.55607843,28.5967742 7.46745098,24.0325161 7.81058824,23.4034839 L11.1098039,27.483871 C11.1098039,27.483871 12.1043137,29.6593548 12.9168627,31.3668387 C13.5090196,32.6109677 13.9956863,33.6390968 13.9956863,33.6390968 C13.9956863,33.6390968 14.3145098,34.2069677 14.4478431,34.6463226 C14.574902,35.0647742 16.3886275,34.8894194 16.3886275,34.8894194 C17.6364706,34.2150968 19.0027451,33.2643871 19.4113725,32.9357419 C19.8533333,32.5807742 19.654902,32.4274839 19.405098,32.2010323 L19.405098,32.2010323 Z" id="Shape"></path>
                        <path d="M8.61921569,16.1713548 C8.32862745,16.1713548 8.08470588,16.1012903 7.89098039,15.9615484 C7.54941176,15.7153548 7.50431373,15.3433548 7.50235294,15.327871 C7.47490196,15.2349677 6.69254902,12.3592258 6.69254902,11.3388387 C6.69254902,11.232 6.78039216,11.1452903 6.88862745,11.1452903 C6.99686275,11.1452903 7.08470588,11.232 7.08470588,11.3388387 C7.08470588,12.3085161 7.87843137,15.2268387 7.88666667,15.2562581 C7.89333333,15.2926452 7.92470588,15.5094194 8.12745098,15.6526452 C8.31921569,15.7885161 8.60666667,15.819871 8.9827451,15.7459355 C9.63254902,15.6174194 10.745098,15.1765161 11.7262745,14.7874839 C12.6913725,14.4046452 13.2964706,14.1692903 13.5619608,14.1460645 C13.5870588,14.1429677 13.6137255,14.1464516 13.6380392,14.1541935 C13.9407843,14.2486452 14.3172549,14.3512258 14.3945098,14.3535484 C14.7415686,14.3535484 15.594902,14.199871 15.9176471,13.9180645 C16.1733333,13.6950968 16.3027451,13.4887742 16.2921569,13.3215484 C16.2890196,13.275871 16.2756863,13.2363871 16.2580392,13.2030968 C15.7921569,13.6443871 15.2831373,13.7252903 15.2592157,13.7287742 C15.1623529,13.7430968 15.072549,13.6873548 15.0431373,13.5971613 C15.0137255,13.5069677 15.0545098,13.4086452 15.14,13.3652903 C15.3701961,13.2487742 15.4305882,13.0970323 15.4435294,13.0529032 C15.4584314,13.0029677 15.4513725,12.9747097 15.4486275,12.9700645 C15.447451,12.9727742 15.4090196,12.9708387 15.3403922,13.0002581 C14.9701961,13.1585806 14.7960784,13.2147097 14.1529412,13.272 C13.9423529,13.2905806 13.7247059,13.3649032 13.4941176,13.443871 C13.3333333,13.4988387 13.1670588,13.5557419 13.0011765,13.5925161 C12.6219608,13.6765161 11.992549,13.7605161 11.3262745,13.8495484 C10.6172549,13.944 9.88470588,14.0415484 9.45803922,14.1406452 C9.40078431,14.1534194 9.34156863,14.1414194 9.29490196,14.1065806 C9.24862745,14.0717419 9.22,14.0183226 9.21764706,13.9610323 C9.21647059,13.9416774 9.12784314,12.0224516 9.02235294,11.1197419 C9.01019608,11.0136774 9.08705882,10.9176774 9.1945098,10.9052903 C9.29960784,10.8917419 9.39921569,10.9687742 9.41215686,11.0752258 C9.49843137,11.8141935 9.57137255,13.1744516 9.59843137,13.7156129 C10.0454902,13.6296774 10.6686275,13.5464516 11.2737255,13.4659355 C11.9317647,13.3780645 12.5529412,13.2956129 12.9156863,13.2150968 C13.0596078,13.1829677 13.2086275,13.1322581 13.3658824,13.0784516 C13.6082353,12.9956129 13.8592157,12.9096774 14.1176471,12.8868387 C14.7235294,12.8330323 14.8564706,12.7861935 15.1843137,12.6456774 C15.4956863,12.512129 15.7188235,12.6301935 15.8035294,12.8055484 C15.8372549,12.876 15.8501961,12.9588387 15.8419608,13.0467097 C15.9317647,12.9785806 16.0235294,12.8957419 16.1101961,12.7950968 C16.1733333,12.7215484 16.2827451,12.7052903 16.365098,12.7575484 C16.394902,12.776129 16.6564706,12.9510968 16.6831373,13.2890323 C16.7066667,13.5867097 16.5364706,13.8963871 16.1776471,14.2087742 C15.7176471,14.6101935 14.694902,14.7410323 14.3941176,14.7410323 C14.2443137,14.7410323 13.7901961,14.6070968 13.5619608,14.5366452 C13.3035294,14.58 12.5768627,14.868 11.8729412,15.1470968 C10.8756863,15.5423226 9.7454902,15.9905806 9.05960784,16.1256774 C8.90235294,16.1562581 8.75568627,16.1713548 8.61921569,16.1713548 L8.61921569,16.1713548 Z" id="Shape"></path>
                        <path d="M15.7152941,12.8407742 L17.0733333,12.1652903 L17.2615686,12.4935484 L15.8854902,13.1860645" id="Shape"></path>
                    </g>
                </g>
            </g>
        </g>
    </g>
</svg>